HIERARCHY
ROOT SpineBase
{
  OFFSET 0.000000 0.000000 0.000000
  CHANNELS 6 Xposition Yposition Zposition Zrotation Xrotation Yrotation
  JOINT SpineMid
  {
    OFFSET 0.000000 29.771125 0.000000
    CHANNELS 3 Zrotation Xrotation Yrotation
    JOINT SpineShoulder
    {
      OFFSET -0.139268 22.220864 -0.676521
      CHANNELS 3 Zrotation Xrotation Yrotation
      JOINT Neck
      {
        OFFSET -0.099898 7.415600 -0.512382
        CHANNELS 3 Zrotation Xrotation Yrotation
        JOINT Head
        {
          OFFSET -8.619998 8.407042 3.984857
          CHANNELS 3 Zrotation Xrotation Yrotation
          End Site
          {
            OFFSET 0 0 0
          }
        }
      }
      JOINT ShoulderLeft
      {
        OFFSET -11.467382 -8.554715 -16.932750
        CHANNELS 3 Zrotation Xrotation Yrotation
        JOINT ElbowLeft
        {
          OFFSET 17.269204 -9.806209 -4.217815
          CHANNELS 3 Zrotation Xrotation Yrotation
          JOINT WristLeft
          {
            OFFSET -10.331877 -14.995782 15.500699
            CHANNELS 3 Zrotation Xrotation Yrotation
            JOINT HandLeft
            {
              OFFSET -4.068772 -4.767271 1.864162
              CHANNELS 3 Zrotation Xrotation Yrotation
              JOINT HandTipLeft
              {
                OFFSET -1.643791 -2.371395 3.499680
                CHANNELS 3 Zrotation Xrotation Yrotation
                End Site
                {
                  OFFSET 0 0 0
                }
              }
              JOINT ThumbLeft
              {
                OFFSET 0.602589 -1.531883 -4.311656
                CHANNELS 3 Zrotation Xrotation Yrotation
                End Site
                {
                  OFFSET 0 0 0
                }
              }
            }
          }
        }
      }
      JOINT ShoulderRight
      {
        OFFSET 4.356268 -2.244059 -12.910892
        CHANNELS 3 Zrotation Xrotation Yrotation
        JOINT ElbowRight
        {
          OFFSET 5.480879 -22.451180 -6.524764
          CHANNELS 3 Zrotation Xrotation Yrotation
          JOINT WristRight
          {
            OFFSET 9.385174 -16.971493 13.703412
            CHANNELS 3 Zrotation Xrotation Yrotation
            JOINT HandRight
            {
              OFFSET 1.991155 -8.501715 0.739076
              CHANNELS 3 Zrotation Xrotation Yrotation
              JOINT HandTipRight
              {
                OFFSET 0.779620 -1.924893 -0.363964
                CHANNELS 3 Zrotation Xrotation Yrotation
                End Site
                {
                  OFFSET 0 0 0
                }
              }
              JOINT ThumbRight
              {
                OFFSET 0.291321 -0.312576 -2.589658
                CHANNELS 3 Zrotation Xrotation Yrotation
                End Site
                {
                  OFFSET 0 0 0
                }
              }
            }
          }
        }
      }
    }
  }
  JOINT HipLeft
  {
    OFFSET -7.060660 -0.017456 -2.210530
    CHANNELS 3 Zrotation Xrotation Yrotation
    JOINT KneeLeft
    {
      OFFSET 14.777078 -43.493916 -7.875273
      CHANNELS 3 Zrotation Xrotation Yrotation
      JOINT AnkleLeft
      {
        OFFSET 2.725343 -20.276387 -10.243773
        CHANNELS 3 Zrotation Xrotation Yrotation
        JOINT FootLeft
        {
          OFFSET 2.304803 5.693556 -3.576806
          CHANNELS 3 Zrotation Xrotation Yrotation
          End Site
          {
            OFFSET 0 0 0
          }
        }
      }
    }
  }
  JOINT HipRight
  {
    OFFSET 6.077377 2.820599 -3.762730
    CHANNELS 3 Zrotation Xrotation Yrotation
    JOINT KneeRight
    {
      OFFSET 0.915907 -32.974760 -11.915171
      CHANNELS 3 Zrotation Xrotation Yrotation
      JOINT AnkleRight
      {
        OFFSET 6.913171 -25.903660 -5.536549
        CHANNELS 3 Zrotation Xrotation Yrotation
        JOINT FootRight
        {
          OFFSET -4.393156 -6.216027 -3.827194
          CHANNELS 3 Zrotation Xrotation Yrotation
          End Site
          {
            OFFSET 0 0 0
          }
        }
      }
    }
  }
}
MOTION
Frames: 13
Frame Time: 0.033333
44.392136 68.972360 278.247965 -0.000000 0.000000 6.738002 -0.000000 0.000000 -6.738002 -0.000000 0.000000 0.000000 -0.000000 0.000000 0.000000 0.000000 0.000000 0.000000 -0.000000 0.000000 0.000000 -0.000000 0.000000 0.000000 -0.000000 0.000000 0.000000 -0.000000 0.000000 0.000000 0.000000 0.000000 0.000000 0.000000 0.000000 0.000000 -0.000000 0.000000 0.000000 -0.000000 0.000000 0.000000 -0.000000 0.000000 0.000000 -0.000000 0.000000 0.000000 0.000000 0.000000 0.000000 0.000000 0.000000 0.000000 -0.000000 0.000000 -6.738002 -0.000000 0.000000 0.000000 -0.000000 0.000000 0.000000 0.000000 0.000000 0.000000 -0.000000 0.000000 -6.738002 -0.000000 0.000000 0.000000 -0.000000 0.000000 0.000000 0.000000 0.000000 0.000000
44.367181 68.954746 278.260652 -0.015729 0.055046 6.491747 0.009405 -0.056471 -6.491734 -0.000000 0.000000 0.000000 -0.000000 0.000000 0.000000 0.000000 0.000000 0.000000 -0.000000 0.000000 0.000000 -0.000000 0.000000 0.000000 -0.000000 0.000000 0.000000 -0.000000 0.000000 0.000000 0.000000 0.000000 0.000000 0.000000 0.000000 0.000000 -0.000000 0.000000 0.000000 -0.000000 0.000000 0.000000 -0.350932 -0.915477 -0.247731 -1.540068 2.340539 1.235446 0.000000 0.000000 0.000000 0.000000 0.000000 0.000000 0.009405 -0.056471 -6.491734 -0.000000 0.000000 0.000000 1.688485 5.150492 -1.140493 0.000000 0.000000 0.000000 0.009405 -0.056471 -6.491734 -0.000000 0.000000 0.000000 -0.000000 0.000000 0.000000 0.000000 0.000000 0.000000
44.343879 68.936038 278.282469 -0.026404 0.102039 6.398436 0.014868 -0.104346 -6.398399 -0.000000 0.000000 0.000000 -0.000000 0.000000 0.000000 0.000000 0.000000 0.000000 -0.000000 0.000000 0.000000 -0.000000 0.000000 0.000000 -0.000000 0.000000 0.000000 -0.000000 0.000000 0.000000 0.000000 0.000000 0.000000 0.000000 0.000000 0.000000 -0.000000 0.000000 0.000000 -0.000000 0.000000 0.000000 -0.661690 -1.729130 -0.472529 -3.035346 4.821239 2.633558 0.000000 0.000000 0.000000 0.000000 0.000000 0.000000 0.014868 -0.104346 -6.398399 -0.029128 -1.400215 -0.174938 4.005242 11.074881 -1.799032 0.000000 0.000000 0.000000 0.014868 -0.104346 -6.398399 -0.000000 0.000000 0.000000 0.449741 0.512589 -0.641197 0.000000 0.000000 0.000000
44.322229 68.916236 278.313414 -0.032029 0.140999 6.458524 0.015966 -0.143707 -6.458465 -0.000000 0.000000 0.000000 -0.000000 0.000000 0.000000 0.000000 0.000000 0.000000 -0.000000 0.000000 0.000000 -0.000000 0.000000 0.000000 -0.000000 0.000000 0.000000 -0.717381 -0.743263 -0.540626 0.000000 0.000000 0.000000 0.000000 0.000000 0.000000 -0.000000 0.000000 0.000000 -0.000000 0.000000 0.000000 -0.932656 -2.444911 -0.673709 -4.388780 7.420740 4.149788 0.000000 0.000000 0.000000 0.000000 0.000000 0.000000 0.015966 -0.143707 -6.458465 -0.038704 -1.865786 -0.233812 6.864805 15.572409 -2.315064 0.000000 0.000000 0.000000 0.015966 -0.143707 -6.458465 -0.000000 0.000000 0.000000 0.649861 0.751443 -0.935423 0.000000 0.000000 0.000000
44.302233 68.895340 278.353489 -0.032608 0.171938 6.671590 0.012412 -0.174563 -6.671522 -0.000000 0.000000 0.000000 0.589808 -0.246590 -0.528878 0.000000 0.000000 0.000000 -0.000000 0.000000 0.000000 -0.000000 0.000000 0.000000 -0.000000 0.000000 0.000000 -1.021481 -1.225388 -0.654631 0.000000 0.000000 0.000000 0.000000 0.000000 0.000000 -0.000000 0.000000 0.000000 -0.000000 0.000000 0.000000 -1.164219 -3.066471 -0.850762 -5.497018 10.096421 5.712321 0.000000 0.000000 0.000000 0.000000 0.000000 0.000000 0.012412 -0.174563 -6.671522 -0.045118 -2.206653 -0.277421 10.245351 19.561701 -2.687527 0.000000 0.000000 0.000000 0.012412 -0.174563 -6.671522 -0.000000 0.000000 0.000000 0.833313 0.979033 -1.211951 0.000000 0.000000 0.000000
44.283889 68.873349 278.402693 -0.028142 0.194866 7.036332 0.004059 -0.196845 -7.036277 -0.000000 0.000000 0.000000 0.683723 -0.266725 -0.592994 0.000000 0.000000 0.000000 -0.000000 0.000000 0.000000 -0.000000 0.000000 0.000000 0.588241 -0.526956 0.684238 -1.961973 -1.267587 -1.409738 0.000000 0.000000 0.000000 0.000000 0.000000 0.000000 -0.000000 0.000000 0.000000 -0.000000 0.000000 0.000000 -1.356759 -3.597120 -1.003320 -6.263237 12.786722 7.227050 0.000000 0.000000 0.000000 0.000000 0.000000 0.000000 0.004059 -0.196845 -7.036277 -0.048509 -2.438523 -0.307661 14.126051 23.130976 -2.964812 0.000000 0.000000 0.000000 0.004059 -0.196845 -7.036277 -0.000000 0.000000 0.000000 0.999992 1.195620 -1.470716 0.000000 0.000000 0.000000
44.264195 68.840975 278.469558 -0.006157 0.212206 7.703282 -0.022343 -0.211116 -7.703311 -0.000000 0.000000 0.000000 0.766641 -0.202604 -0.566351 0.000000 0.000000 0.000000 -0.000000 0.000000 0.000000 -0.000000 0.000000 0.000000 1.412959 -0.780397 1.237913 -3.700610 -3.037398 -1.805621 0.000000 0.000000 0.000000 0.000000 0.000000 0.000000 -0.000000 0.000000 0.000000 -0.000000 0.000000 0.000000 -1.840499 -3.953853 -1.150770 -4.043906 18.641878 9.165741 0.000000 0.000000 0.000000 0.000000 0.000000 0.000000 -0.022343 -0.211116 -7.703311 -0.033380 -2.466559 -0.318916 26.734394 33.379075 -5.784745 0.000000 0.000000 0.000000 -0.022343 -0.211116 -7.703311 -0.000000 0.000000 0.000000 1.155247 1.485073 -1.774251 0.000000 0.000000 0.000000
44.245880 68.818214 278.546106 0.020969 0.219048 8.427598 -0.052846 -0.213610 -8.427737 -0.000000 0.000000 0.000000 0.710047 -0.202834 -0.540291 0.000000 0.000000 0.000000 -0.000000 0.000000 0.000000 -0.000000 0.000000 0.000000 1.797798 -1.386206 1.924452 -4.415596 -4.163174 -1.675832 0.000000 0.000000 0.000000 0.000000 0.000000 0.000000 -0.000000 0.000000 0.000000 -0.000000 0.000000 0.000000 -1.803192 -4.092062 -1.180631 -4.373486 19.938266 9.839460 0.000000 0.000000 0.000000 0.000000 0.000000 0.000000 -0.052846 -0.213610 -8.427737 -0.064084 -2.619978 -0.325081 29.921824 34.903256 -6.055032 0.000000 0.000000 0.000000 -0.052846 -0.213610 -8.427737 -0.000000 0.000000 0.000000 1.345895 1.781108 -2.105608 0.000000 0.000000 0.000000
44.231970 68.808935 278.613955 0.028499 0.219251 9.190211 -0.063151 -0.211885 -9.190382 -0.000000 0.000000 0.000000 0.732514 -0.222859 -0.571068 0.000000 0.000000 0.000000 -0.000000 0.000000 0.000000 -0.000000 0.000000 0.000000 2.179168 -1.105190 1.839301 -4.807068 -4.934044 -1.289249 0.000000 0.000000 0.000000 0.000000 0.000000 0.000000 0.553502 -0.669157 -0.321153 -0.557281 0.666012 0.327624 -1.629700 -4.539452 -1.269808 -3.680888 17.470886 8.320472 0.000000 0.000000 0.000000 0.000000 0.000000 0.000000 -0.063151 -0.211885 -9.190382 -0.046024 -2.552367 -0.324563 28.738789 32.957608 -4.507643 0.000000 0.000000 0.000000 -0.063151 -0.211885 -9.190382 -0.000000 0.000000 0.000000 1.427890 2.012179 -2.321544 0.000000 0.000000 0.000000
44.234555 68.793672 278.660593 0.046102 0.230950 9.831783 -0.084862 -0.219686 -9.832039 -0.000000 0.000000 0.000000 0.696651 -0.292573 -0.625269 0.000000 0.000000 0.000000 -0.000000 0.000000 0.000000 -0.000000 0.000000 0.000000 2.216771 -1.317168 2.040965 -5.330037 -4.440287 -2.291579 0.000000 0.000000 0.000000 0.000000 0.000000 0.000000 0.645466 -0.740903 -0.364471 -0.650220 0.736735 0.372825 -1.780565 -4.564284 -1.295487 -6.051672 17.680610 9.461483 0.000000 0.000000 0.000000 0.000000 0.000000 0.000000 0.595330 0.220806 -9.753064 -0.613366 -2.988372 -0.406630 30.260339 31.940768 -2.807137 0.000000 0.000000 0.000000 -0.084862 -0.219686 -9.832039 -0.000000 0.000000 0.000000 1.544130 2.137107 -2.484886 0.000000 0.000000 0.000000
44.229906 68.786320 278.703726 0.050283 0.241986 10.270565 -0.092623 -0.229143 -10.270856 -0.000000 0.000000 0.000000 0.567254 -0.459291 -0.735185 0.000000 0.000000 0.000000 -0.000000 0.000000 0.000000 -0.000000 0.000000 0.000000 1.614732 -1.792617 2.199538 -4.685725 -3.948532 -2.396025 0.000000 0.000000 0.000000 0.000000 0.000000 0.000000 0.742575 -0.749154 -0.393969 -0.747772 0.743967 0.403678 -1.478951 -4.620255 -1.270255 -3.677829 17.040983 8.053111 0.000000 0.000000 0.000000 0.000000 0.000000 0.000000 0.677729 0.332873 -10.156455 -0.628044 -2.880910 -0.433801 33.983600 32.816615 -2.044086 0.000000 0.000000 0.000000 -0.092623 -0.229143 -10.270856 -0.000000 0.000000 0.000000 1.630896 2.062813 -2.488671 0.000000 0.000000 0.000000
44.198597 68.788820 278.782667 0.032518 0.213631 10.311716 -0.070234 -0.204360 -10.311902 -0.000000 0.000000 0.000000 0.453848 -0.643295 -0.870933 0.000000 0.000000 0.000000 -0.000000 0.000000 0.000000 -0.000000 0.000000 0.000000 1.132145 -2.471817 2.576677 -4.130118 -1.404776 -3.919997 0.000000 0.000000 0.000000 0.000000 0.000000 0.000000 0.782577 -0.791555 -0.415411 -0.788370 0.785786 0.426223 -1.496865 -4.923699 -1.347389 -1.762785 13.693404 5.838727 0.000000 0.000000 0.000000 0.000000 0.000000 0.000000 0.791201 0.411611 -10.189084 -0.653127 -2.576898 -0.418867 38.684217 33.844493 -0.999568 0.000000 0.000000 0.000000 -0.070234 -0.204360 -10.311902 -0.000000 0.000000 0.000000 1.829467 1.750278 -2.395695 0.000000 0.000000 0.000000
44.166273 68.798550 278.898709 0.016284 0.155955 10.046128 -0.043239 -0.150724 -10.046207 -0.000000 0.000000 0.000000 0.444431 -0.685159 -0.909464 0.000000 0.000000 0.000000 -0.000000 0.000000 0.000000 -0.000000 0.000000 0.000000 0.791320 -2.815107 2.721381 -3.962528 -2.564258 -3.270096 0.000000 0.000000 0.000000 0.000000 0.000000 0.000000 0.843414 -0.770166 -0.427533 -0.849213 0.763768 0.438862 -1.311158 -4.555028 -1.232508 -11.669216 14.731081 10.145754 0.000000 0.000000 0.000000 0.000000 0.000000 0.000000 0.808644 0.418340 -9.941589 -0.607882 -2.068065 -0.360778 34.898632 34.338321 -3.490778 0.000000 0.000000 0.000000 -0.043239 -0.150724 -10.046207 -0.000000 0.000000 0.000000 2.151278 1.481995 -2.412420 0.000000 0.000000 0.000000
